<svg id="Layer_1" data-name="Layer 1" xmlns="http://www.w3.org/2000/svg" xmlns:xlink="http://www.w3.org/1999/xlink" viewBox="0 0 716.41 731.63"><defs><style>.cls-1{fill:url(#linear-gradient);}.cls-2{fill:#fff;}</style><linearGradient id="linear-gradient" x1="145.83" y1="27.34" x2="574.35" y2="455.86" gradientUnits="userSpaceOnUse"><stop offset="0.15" stop-color="#272361"/><stop offset="0.23" stop-color="#30235f"/><stop offset="0.35" stop-color="#482259"/><stop offset="0.51" stop-color="#702150"/><stop offset="0.7" stop-color="#a71f42"/><stop offset="0.9" stop-color="#ec1d32"/></linearGradient></defs><title>scorpad verticle</title><rect class="cls-1" x="118.49" width="480.74" height="480.74" rx="55.22"/><path class="cls-2" d="M782.82,421.35V430a4.58,4.58,0,0,1-4.59,4.59H652.78a4.6,4.6,0,0,0-4.57,4.3c-6.66,90.67-81.4,162.7-173.15,165.06a4.57,4.57,0,0,1-4.65-4.59V568.94a4.61,4.61,0,0,1,4.51-4.59c69.7-2.24,126.55-56.16,133.44-124.62a4.62,4.62,0,0,0-4.57-5.11H306.68a4.58,4.58,0,0,1-4.59-4.59v-8.68a4.59,4.59,0,0,1,4.59-4.59h120a4.6,4.6,0,0,0,4.58-4.3c6.67-90.66,81.39-162.7,173.14-165.06A4.57,4.57,0,0,1,609,252v30.48a4.61,4.61,0,0,1-4.51,4.59C534.82,289.3,478,343.21,471.06,411.66a4.61,4.61,0,0,0,4.57,5.1h302.6A4.59,4.59,0,0,1,782.82,421.35Z" transform="translate(-183.59 -185.33)"/><path d="M265.8,855.73a33.19,33.19,0,0,1-13.71,12.5Q243,872.94,230,872.94a57.21,57.21,0,0,1-22.95-4.37A38.72,38.72,0,0,1,190.87,856a35.1,35.1,0,0,1-6.1-13.5,4.62,4.62,0,0,1,4.46-5.69h16.62a4.69,4.69,0,0,1,4.46,3.53,19.12,19.12,0,0,0,5.22,8.72q5.06,4.88,13.44,4.88,7.54,0,11.56-4a14,14,0,0,0,4-10.37,13.61,13.61,0,0,0-3.25-9.33,23.9,23.9,0,0,0-8.23-5.91q-5-2.22-13.7-5.14a134.42,134.42,0,0,1-18.49-7.45A34.05,34.05,0,0,1,188.64,801q-5.05-7-5-18.33,0-15.58,11.22-24.58t29.71-9q19.18,0,30.57,9.25a34.08,34.08,0,0,1,12,18.94A4.62,4.62,0,0,1,262.6,783h-17a4.66,4.66,0,0,1-4.39-3.3,17.53,17.53,0,0,0-4.69-7.4q-4.45-4.2-12.16-4.2c-4.45,0-8,1.18-10.79,3.51s-4.11,5.74-4.11,10.2a12.63,12.63,0,0,0,3.17,8.82,24,24,0,0,0,8,5.73,128.06,128.06,0,0,0,13.27,5,177,177,0,0,1,18.93,7.71,33.2,33.2,0,0,1,12.41,10.79q5.14,7.18,5.14,18.84A32.83,32.83,0,0,1,265.8,855.73Z" transform="translate(-183.59 -185.33)"/><path d="M361.45,785.59a42.06,42.06,0,0,1,13.9,21.07,4.61,4.61,0,0,1-4.38,6H354.74a4.63,4.63,0,0,1-4.35-3.16,19.09,19.09,0,0,0-6.15-8.74q-5.7-4.53-14.51-4.36a16.55,16.55,0,0,0-3.58.45q-18.22,4.39-18.23,27.46t18.37,27.48a16.23,16.23,0,0,0,3.47.43q8.81.16,14.48-4.36a19.09,19.09,0,0,0,6.15-8.74,4.63,4.63,0,0,1,4.35-3.16H371a4.61,4.61,0,0,1,4.38,6A42,42,0,0,1,361.45,863q-12.26,9.93-30.57,9.93A50.54,50.54,0,0,1,306.21,867a41.5,41.5,0,0,1-16.78-16.87q-6-10.95-6-25.86t6-25.95a40.9,40.9,0,0,1,16.78-16.87,51.17,51.17,0,0,1,24.67-5.82Q349.19,775.66,361.45,785.59Z" transform="translate(-183.59 -185.33)"/><path d="M462.67,781.48a42.69,42.69,0,0,1,17.38,16.87q6.33,11.05,6.34,25.95t-6.34,25.86A43.33,43.33,0,0,1,462.67,867a55.49,55.49,0,0,1-49.84,0,43.35,43.35,0,0,1-17.39-16.87q-6.33-10.95-6.33-25.86t6.33-25.95a42.71,42.71,0,0,1,17.39-16.87,56.26,56.26,0,0,1,49.84,0Zm-42.05,22.18q-7,7.11-7,20.64t7,20.64a24.18,24.18,0,0,0,34.25,0q7-7.11,7-20.64t-7-20.64a24.18,24.18,0,0,0-34.25,0Z" transform="translate(-183.59 -185.33)"/><path d="M541.71,780.71a36.42,36.42,0,0,1,14.5-4.92,4.55,4.55,0,0,1,5,4.57v16.4a4.58,4.58,0,0,1-4.59,4.59h-2.43q-26.55,0-26.54,24.66v41.14a4.59,4.59,0,0,1-4.59,4.59h-15a4.59,4.59,0,0,1-4.59-4.59v-85.7a4.59,4.59,0,0,1,4.59-4.59h15a4.59,4.59,0,0,1,4.59,4.59v.61a4.59,4.59,0,0,0,7.75,3.31A39.25,39.25,0,0,1,541.71,780.71Z" transform="translate(-183.59 -185.33)"/><path d="M652.86,781.48a39.47,39.47,0,0,1,15,16.87q5.39,11.05,5.39,25.95t-5.39,26a39.41,39.41,0,0,1-15,16.87,40.8,40.8,0,0,1-21.58,5.82q-12,0-20.47-5.74a33,33,0,0,1-4.33-3.48,4.57,4.57,0,0,0-7.74,3.31v45.34a4.59,4.59,0,0,1-4.59,4.59h-15a4.59,4.59,0,0,1-4.59-4.59V781.45a4.58,4.58,0,0,1,4.59-4.59h15a4.58,4.58,0,0,1,4.59,4.59h0a4.58,4.58,0,0,0,7.73,3.32,32.14,32.14,0,0,1,4.34-3.46q8.48-5.65,20.47-5.65A40.8,40.8,0,0,1,652.86,781.48Zm-47.18,22.7q-7.11,7.44-7.11,20.12,0,12.51,7.11,20t18.06,7.45q11.31,0,18.16-7.27t6.85-20.13q0-12.84-6.85-20.21t-18.16-7.36Q612.79,796.73,605.68,804.18Z" transform="translate(-183.59 -185.33)"/><path d="M748.09,781.31a33.62,33.62,0,0,1,4.44,3.51,4.58,4.58,0,0,0,7.72-3.33v0a4.58,4.58,0,0,1,4.58-4.59h14.8a4.58,4.58,0,0,1,4.59,4.59v85.7a4.58,4.58,0,0,1-4.59,4.59h-14.8a4.58,4.58,0,0,1-4.58-4.59V867a4.57,4.57,0,0,0-7.73-3.31,33.48,33.48,0,0,1-4.43,3.53q-8.58,5.74-20.56,5.74A40.8,40.8,0,0,1,706,867.12a39.33,39.33,0,0,1-15-16.87q-5.4-11.06-5.4-26t5.4-25.95a39.38,39.38,0,0,1,15-16.87,40.8,40.8,0,0,1,21.58-5.82Q739.52,775.66,748.09,781.31Zm-31.18,22.78q-6.84,7.36-6.85,20.21t6.85,20.13q6.86,7.27,18.16,7.27a23.9,23.9,0,0,0,18.07-7.45q7.1-7.44,7.11-20,0-12.67-7.11-20.12a23.9,23.9,0,0,0-18.07-7.45Q723.76,796.73,716.91,804.09Z" transform="translate(-183.59 -185.33)"/><path d="M863.78,781.31a32.89,32.89,0,0,1,4.52,3.62A4.57,4.57,0,0,0,876,781.6v-32a4.6,4.6,0,0,1,4.59-4.59h14.8a4.59,4.59,0,0,1,4.59,4.59V867.15a4.58,4.58,0,0,1-4.59,4.59h-14.8a4.59,4.59,0,0,1-4.59-4.59v-.27a4.57,4.57,0,0,0-7.73-3.32,33.53,33.53,0,0,1-4.51,3.64q-8.49,5.74-20.47,5.74a40.77,40.77,0,0,1-21.58-5.82,39.35,39.35,0,0,1-15-16.87q-5.38-11.06-5.39-26t5.39-25.95a39.4,39.4,0,0,1,15-16.87,40.77,40.77,0,0,1,21.58-5.82Q855.3,775.66,863.78,781.31Zm-31.09,22.78q-6.86,7.36-6.85,20.21t6.85,20.13q6.85,7.27,18.16,7.27a23.9,23.9,0,0,0,18.07-7.45q7.1-7.44,7.1-20,0-12.67-7.1-20.12a23.9,23.9,0,0,0-18.07-7.45Q839.54,796.73,832.69,804.09Z" transform="translate(-183.59 -185.33)"/></svg>